<svg xmlns="http://www.w3.org/2000/svg" viewBox="0 0 274.84 193.63">
  <g>
    <path d="M20.52,187.81a3.34,3.34,0,0,0,0-.94c-3.78-9.05.81-16.89,12-17.65a21.41,21.41,0,0,1,13.62,3.48c4.88,3.26,6.07,6.68,5.37,15,7.42.78,7.38.78,7.35-6.47-.15-32.81-.66-65.63-.3-98.44.5-44.23,31-76,70.27-81.95C171-5.52,212.68,24.3,220,66.19a92.63,92.63,0,0,1,1.44,17c-.35,33.86-.48,67.72-.83,101.59,0,3.06.68,4.35,3.79,3.75a7.35,7.35,0,0,1,1.05,0c1.74,0,3.86.52,5.12-.28s-.2-2.9-.12-4.47c.32-6.4,5.45-10.88,13.33-11.05,5.28-.12,10.15,1.42,13.87,5.42,2.05,2.19,3.4,4.87,2.64,7.95-.62,2.51.55,2.66,2.45,2.59,2.68-.09,5.36,0,8,0,2,0,4.08.17,4,2.69s-2.16,2.28-3.95,2.28c-21.88,0-43.76,0-65.65,0Q105,193.27,4.79,192.9c-.7,0-1.4,0-2.1,0-1.6-.11-2.74-.93-2.69-2.59s1.24-2.43,2.84-2.44c4.78,0,9.55,0,14.32,0Zm119.21-24.27V164c24.31,0,48.63-.05,73,.06,2.68,0,3.25-.75,3.26-3.31.1-25.94.42-51.88.51-77.81.1-26.89-10.66-48.49-32.6-64.07a75.05,75.05,0,0,0-85.83-1c-23.33,15.73-34.26,38.29-34.56,66-.27,25.35.1,50.72,0,76.07,0,2.85.69,3.68,3.62,3.66C91.33,163.49,115.53,163.54,139.73,163.54Zm.2,24.42v.54c24.07,0,48.15,0,72.23.06,2.61,0,3.74-.49,3.59-3.4-.23-4.41-.08-8.84.09-13.25.07-2.09-.53-2.8-2.72-2.81q-73.26-.21-146.54-.61c-2.69,0-3,1.09-2.94,3.32.2,4.18.4,8.37.21,12.55-.14,2.8.47,3.7,3.5,3.68C91.54,187.9,115.74,188,139.93,188ZM36,187.83v0c2.56,0,5.11,0,7.67,0,1.06,0,2,.13,2.45-1.28.93-2.94,1.07-5.68-1.12-8.18C41.19,174,31.89,172.62,27,175.75c-2.83,1.81-3.5,4.45-2.64,7.58.8,2.92,2.12,5.08,5.78,4.55A41.73,41.73,0,0,1,36,187.83Zm209.57.71c2,0,3.94,0,5.91,0,3.48,0,4.92-2.49,3.34-5.74-2.64-5.46-13.9-7.11-18-2.61-1.74,1.9-1.83,4.07-1.05,6.48.85,2.61,2.91,1.75,4.62,1.85S243.86,188.53,245.59,188.54Z" style="fill: #080707"/>
    <path d="M139.73,163.54c-24.2,0-48.4,0-72.6.07-2.93,0-3.62-.81-3.62-3.66.05-25.35-.32-50.72,0-76.07.3-27.74,11.23-50.3,34.56-66a75.05,75.05,0,0,1,85.83,1c21.94,15.58,32.7,37.18,32.6,64.07-.09,25.93-.41,51.87-.51,77.81,0,2.56-.58,3.33-3.26,3.31-24.32-.11-48.64-.06-73-.06Zm-9.82-44.27a49.12,49.12,0,0,0-.91-11c-.88-5.16-2.13-10.26-5.67-14.39-4.63-5.39-10.3-5.29-14.77.19a21.86,21.86,0,0,0-3.77,7,67.71,67.71,0,0,0-.8,40.75c1.17,4.06,3.09,7.79,6.66,10.36,3.11,2.24,5.88,2.05,8.83-.39a22.23,22.23,0,0,0,6.82-9.9A63.75,63.75,0,0,0,129.91,119.27Zm46.8,0a49.16,49.16,0,0,0-.91-11c-.88-5.16-2.13-10.26-5.67-14.39-4.62-5.4-10.29-5.31-14.76.18a21.64,21.64,0,0,0-3.78,7,67.79,67.79,0,0,0-.81,40.75c1.17,4.06,3.09,7.79,6.67,10.37,3.1,2.24,5.88,2.05,8.82-.38a22.31,22.31,0,0,0,6.83-9.9A63.74,63.74,0,0,0,176.71,119.29Z" style="fill: #d5f6b3"/>
    <path d="M139.93,188c-24.19,0-48.39-.06-72.58.08-3,0-3.64-.88-3.5-3.68.19-4.18,0-8.37-.21-12.55-.11-2.23.25-3.33,2.94-3.32q73.28.42,146.54.61c2.19,0,2.79.72,2.72,2.81-.17,4.41-.32,8.84-.09,13.25.15,2.91-1,3.4-3.59,3.4-24.08-.09-48.16-.06-72.23-.06Z" style="fill: #c14497"/>
    <path d="M36,187.83a41.73,41.73,0,0,0-5.92,0c-3.66.53-5-1.63-5.78-4.55-.86-3.13-.19-5.77,2.64-7.58,4.93-3.13,14.23-1.73,18.06,2.66,2.19,2.5,2,5.24,1.12,8.18-.45,1.41-1.39,1.29-2.45,1.28-2.56,0-5.11,0-7.67,0Z" style="fill: #be4394"/>
    <path d="M245.59,188.53c-1.73,0-3.47.07-5.21,0s-3.77.76-4.62-1.85c-.78-2.41-.69-4.58,1.05-6.48,4.13-4.5,15.39-2.85,18,2.61,1.58,3.25.14,5.72-3.34,5.74C249.53,188.55,247.56,188.54,245.59,188.53Z" style="fill: #bc4293"/>
    <path d="M129.91,119.27a63.75,63.75,0,0,1-3.61,22.63,22.23,22.23,0,0,1-6.82,9.9c-3,2.44-5.72,2.63-8.83.39-3.57-2.57-5.49-6.3-6.66-10.36a67.71,67.71,0,0,1,.8-40.75,21.86,21.86,0,0,1,3.77-7c4.47-5.48,10.14-5.58,14.77-.19,3.54,4.13,4.79,9.23,5.67,14.39A49.12,49.12,0,0,1,129.91,119.27Zm-5.54,17.2a52.8,52.8,0,0,0,1.75-20.27c-.59-6.6-2.12-13-5.86-18.72-2.84-4.3-6.15-4.53-9.1-.28-5.83,8.38-6.39,17.9-5.79,28,3.93-3,7.63-5.86,12.06-3.47C122.68,124.61,124.17,129.86,124.37,136.47Z" style="fill: #050504"/>
    <path d="M176.71,119.29a63.74,63.74,0,0,1-3.61,22.62,22.31,22.31,0,0,1-6.83,9.9c-2.94,2.43-5.72,2.62-8.82.38-3.58-2.58-5.5-6.31-6.67-10.37a67.79,67.79,0,0,1,.81-40.75,21.64,21.64,0,0,1,3.78-7c4.47-5.49,10.14-5.58,14.76-.18,3.54,4.13,4.79,9.23,5.67,14.39A49.16,49.16,0,0,1,176.71,119.29Zm-24.56,5.79c10.89-8.87,18.2-1.59,19.28,10.5,2.57-11.75,2.6-23.35-2.49-34.55-1.3-2.88-2.39-6.57-6.31-6.63-4.21-.07-5.6,3.7-7,6.8C152.14,108.65,151.57,116.6,152.15,125.08Z" style="fill: #050504"/>
    <path d="M124.37,136.47c-.2-6.61-1.69-11.86-6.94-14.7-4.43-2.39-8.13.42-12.06,3.47-.6-10.14,0-19.66,5.79-28,3-4.25,6.26-4,9.1.28,3.74,5.67,5.27,12.12,5.86,18.72A52.8,52.8,0,0,1,124.37,136.47Z" style="fill: #eaf2e1"/>
    <path d="M152.15,125.08c-.58-8.48,0-16.43,3.44-23.88,1.44-3.1,2.83-6.87,7-6.8,3.92.06,5,3.75,6.31,6.63,5.09,11.2,5.06,22.8,2.49,34.55C170.35,123.49,163,116.21,152.15,125.08Z" style="fill: #eaf2e1"/>
  </g>
</svg>
