<svg xmlns="http://www.w3.org/2000/svg" viewBox="0 0 300 300">
  <g>
    <path d="M-22.13,286.82a4.42,4.42,0,0,0,0-1.33c-5.31-12.71,1.14-23.74,16.87-24.8a29.57,29.57,0,0,1,19.14,4.9c7.55,5.16,9.67,12.4,7.22,21.06,10.77,1.14,10.71,1.14,10.67-9-.2-46.13-.93-92.27-.41-138.39C32,77,74.89,32.35,130.12,24c59.25-9,117.9,33,128.21,91.84a129.73,129.73,0,0,1,2,23.88c-.49,47.6-.68,95.21-1.17,142.81-.05,4.31.95,6.12,5.33,5.29a9,9,0,0,1,1.47,0c2.45-.05,5.43.73,7.2-.39,1.92-1.23-.28-4.08-.17-6.29.45-9,7.66-15.29,18.73-15.54,7.43-.16,14.27,2,19.51,7.62,2.88,3.09,4.78,6.86,3.71,11.19-.88,3.53.77,3.73,3.45,3.64,3.76-.13,7.53,0,11.29,0,2.76,0,5.75.24,5.68,3.79-.07,3.38-3,3.2-5.56,3.2-30.76,0-61.53.06-92.29,0q-140.91-.42-281.8-1c-1,0-2,0-2.94-.05-2.26-.16-3.86-1.31-3.79-3.64s1.74-3.42,4-3.44c6.71,0,13.42,0,20.12,0ZM145.41,252.7v.68c34.19,0,68.38-.06,102.56.09,3.69,0,4.63-.93,4.64-4.61.13-36.46.57-72.93.71-109.4.14-37.8-15-68.16-45.79-90.09A105.57,105.57,0,0,0,86.85,47.85C54.05,70,38.68,101.66,38.24,140.66c-.4,35.48.14,71,.06,106.46,0,4.3.88,5.73,5.54,5.7C77.69,252.6,111.55,252.7,145.41,252.7Zm.34,34.33v.76c33.85,0,67.69-.05,101.54.08,3.69,0,5.25-.72,5-4.79-.31-6.19-.11-12.42.12-18.63.12-2.95-.76-3.92-3.82-3.93q-103-.3-206-.85c-3.24,0-4.32.94-4.15,4.17.32,6,.59,12.11.31,18.13-.18,4,.71,5.2,4.95,5.17C77.73,287,111.74,287,145.75,287ZM-.17,286.85v0H10.61c1.29,0,2.56.26,3.15-1.49,1.38-4.08,1.75-8-1.23-11.56-5.26-6.37-18.78-8.47-25.74-3.89-4,2.61-4.76,6.36-3.55,10.72,1.16,4.17,3.21,7,8.26,6.24C-5.78,286.53-2.95,286.85-.17,286.85Zm294.34,1c2.77,0,5.54,0,8.31,0,5,0,7.09-3.87,4.65-8.41-4-7.4-19.36-9.52-25.1-3.42-2.48,2.63-2.66,5.67-1.61,9.08,1.14,3.67,4,2.61,6.43,2.71S291.73,287.83,294.17,287.84Z" style="fill: #080707"/>
    <path d="M145.41,252.7c-33.86,0-67.72-.1-101.57.12-4.66,0-5.55-1.4-5.54-5.7.08-35.49-.46-71-.06-106.46.44-39,15.81-70.7,48.61-92.81a105.57,105.57,0,0,1,120.68,1.52c30.83,21.93,45.93,52.29,45.79,90.09-.14,36.47-.58,72.94-.71,109.4,0,3.68-1,4.63-4.64,4.61-34.18-.15-68.37-.09-102.56-.09Zm-13.76-62.46c.37-4.27-.35-9.81-1.28-15.27-1.23-7.26-3-14.42-8-20.23-6.5-7.59-14.47-7.44-20.76.27a30.46,30.46,0,0,0-5.3,9.87,95.26,95.26,0,0,0-1.13,57.29c1.65,5.71,4.34,11,9.37,14.57,4.37,3.15,8.26,2.88,12.41-.54a31.35,31.35,0,0,0,9.59-13.92C130.17,212.34,131.74,202.09,131.65,190.24Zm65.8.39a70.69,70.69,0,0,0-1.25-15.45c-1.27-7.42-3-14.75-8.19-20.64-6.45-7.34-14.23-7.18-20.44.3a30.28,30.28,0,0,0-5.36,9.84,95.06,95.06,0,0,0-1.13,57.75c1.75,6,4.71,11.49,10.34,15a7.45,7.45,0,0,0,7.37.85c7.26-3,10.9-9,13.49-15.81C196,212.6,197.52,202.3,197.45,190.63Z" style="fill: #d5f6b3"/>
    <path d="M145.75,287c-34,0-68-.08-102,.11-4.24,0-5.13-1.21-4.95-5.17.28-6,0-12.09-.31-18.13-.17-3.23.91-4.18,4.15-4.17q103,.56,206,.85c3.06,0,3.94,1,3.82,3.93-.23,6.21-.43,12.44-.12,18.63.21,4.07-1.35,4.8-5,4.79-33.85-.13-67.69-.08-101.54-.08Z" style="fill: #c14497"/>
    <path d="M-.17,286.85c-2.78,0-5.61-.32-8.33.07-5.05.73-7.1-2.07-8.26-6.24-1.21-4.36-.42-8.11,3.55-10.72,7-4.58,20.48-2.48,25.74,3.89,3,3.6,2.61,7.48,1.23,11.56-.59,1.75-1.86,1.49-3.15,1.49H-.17Z" style="fill: #be4394"/>
    <path d="M294.17,287.83c-2.44,0-4.88.08-7.32,0s-5.29,1-6.43-2.71c-1.05-3.41-.87-6.45,1.61-9.08,5.74-6.1,21.11-4,25.1,3.42,2.44,4.54.32,8.38-4.65,8.41C299.71,287.85,296.94,287.84,294.17,287.83Z" style="fill: #bc4293"/>
    <path d="M131.65,190.24c.09,11.85-1.48,22.1-5.07,32A31.35,31.35,0,0,1,117,236.2c-4.15,3.42-8,3.69-12.41.54-5-3.62-7.72-8.86-9.37-14.57a95.26,95.26,0,0,1,1.13-57.29,30.46,30.46,0,0,1,5.3-9.87c6.29-7.71,14.26-7.86,20.76-.27,5,5.81,6.74,13,8,20.23C131.3,180.43,132,186,131.65,190.24Zm-7.78,24.44a74.75,74.75,0,0,0,2.45-28.54c-.83-9.27-3-18.35-8.23-26.31-4-6.05-8.65-6.37-12.8-.4-8.19,11.78-9,25.16-8.14,39.44,5.53-4.32,10.74-8.25,17-4.89C121.49,198,123.58,205.34,123.87,214.68Z" style="fill: #050504"/>
    <path d="M197.45,190.63c.07,11.67-1.42,22-5.17,31.84-2.59,6.8-6.23,12.82-13.49,15.81a7.45,7.45,0,0,1-7.37-.85c-5.63-3.51-8.59-9-10.34-15a95.06,95.06,0,0,1,1.13-57.75,30.28,30.28,0,0,1,5.36-9.84c6.21-7.48,14-7.64,20.44-.3,5.17,5.89,6.92,13.22,8.19,20.64A70.69,70.69,0,0,1,197.45,190.63ZM163,198.87c8.64-6.88,13.46-7.63,18.88-3.52,6,4.51,7.36,11,8.1,18a79.21,79.21,0,0,0,.78-35.81c-1.35-6.43-3.39-12.59-7.12-18s-8-5.7-12.23-.43a28.62,28.62,0,0,0-3.75,6.27C163,175.8,162.05,186.84,163,198.87Z" style="fill: #050504"/>
    <path d="M123.87,214.68c-.29-9.34-2.38-16.72-9.76-20.7-6.22-3.36-11.43.57-17,4.89-.83-14.28-.05-27.66,8.14-39.44,4.15-6,8.81-5.65,12.8.4,5.26,8,7.4,17,8.23,26.31A74.75,74.75,0,0,1,123.87,214.68Z" style="fill: #eaf2e1"/>
    <path d="M163,198.87c-.92-12,0-23.07,4.66-33.58a28.62,28.62,0,0,1,3.75-6.27c4.22-5.27,8.43-5.12,12.23.43s5.77,11.61,7.12,18A79.21,79.21,0,0,1,190,213.3c-.74-6.91-2.15-13.44-8.1-18C176.43,191.24,171.61,192,163,198.87Z" style="fill: #eaf2e1"/>
  </g>
</svg>
